<svg class="rich-terminal" viewBox="0 0 1482 1026.0" xmlns="http://www.w3.org/2000/svg">
    <!-- Generated with Rich https://www.textualize.io -->
    <style>

    @font-face {
        font-family: "Fira Code";
        src: local("FiraCode-Regular"),
                url("https://cdnjs.cloudflare.com/ajax/libs/firacode/6.2.0/woff2/FiraCode-Regular.woff2") format("woff2"),
                url("https://cdnjs.cloudflare.com/ajax/libs/firacode/6.2.0/woff/FiraCode-Regular.woff") format("woff");
        font-style: normal;
        font-weight: 400;
    }
    @font-face {
        font-family: "Fira Code";
        src: local("FiraCode-Bold"),
                url("https://cdnjs.cloudflare.com/ajax/libs/firacode/6.2.0/woff2/FiraCode-Bold.woff2") format("woff2"),
                url("https://cdnjs.cloudflare.com/ajax/libs/firacode/6.2.0/woff/FiraCode-Bold.woff") format("woff");
        font-style: bold;
        font-weight: 700;
    }

    .terminal-938747382-matrix {
        font-family: Fira Code, monospace;
        font-size: 20px;
        line-height: 24.4px;
        font-variant-east-asian: full-width;
    }

    .terminal-938747382-title {
        font-size: 18px;
        font-weight: bold;
        font-family: arial;
    }

    .terminal-938747382-r1 { fill: #c5c8c6 }
.terminal-938747382-r2 { fill: #087f6b;font-weight: bold }
.terminal-938747382-r3 { fill: #66727c }
.terminal-938747382-r4 { fill: #d7dee4 }
.terminal-938747382-r5 { fill: #2563b8;font-weight: bold }
.terminal-938747382-r6 { fill: #76558a;font-weight: bold }
.terminal-938747382-r7 { fill: #976512;font-weight: bold }
.terminal-938747382-r8 { fill: #202830 }
.terminal-938747382-r9 { fill: #087f6b }
.terminal-938747382-r10 { fill: #976512 }
.terminal-938747382-r11 { fill: #202830;font-weight: bold }
.terminal-938747382-r12 { fill: #bbc6ce }
.terminal-938747382-r13 { fill: #2563b8 }
.terminal-938747382-r14 { fill: #52616d }
.terminal-938747382-r15 { fill: #fbfcfd }
    </style>

    <defs>
    <clipPath id="terminal-938747382-clip-terminal">
      <rect x="0" y="0" width="1463.0" height="975.0" />
    </clipPath>
    <clipPath id="terminal-938747382-line-0">
    <rect x="0" y="1.5" width="1464" height="24.65"/>
            </clipPath>
<clipPath id="terminal-938747382-line-1">
    <rect x="0" y="25.9" width="1464" height="24.65"/>
            </clipPath>
<clipPath id="terminal-938747382-line-2">
    <rect x="0" y="50.3" width="1464" height="24.65"/>
            </clipPath>
<clipPath id="terminal-938747382-line-3">
    <rect x="0" y="74.7" width="1464" height="24.65"/>
            </clipPath>
<clipPath id="terminal-938747382-line-4">
    <rect x="0" y="99.1" width="1464" height="24.65"/>
            </clipPath>
<clipPath id="terminal-938747382-line-5">
    <rect x="0" y="123.5" width="1464" height="24.65"/>
            </clipPath>
<clipPath id="terminal-938747382-line-6">
    <rect x="0" y="147.9" width="1464" height="24.65"/>
            </clipPath>
<clipPath id="terminal-938747382-line-7">
    <rect x="0" y="172.3" width="1464" height="24.65"/>
            </clipPath>
<clipPath id="terminal-938747382-line-8">
    <rect x="0" y="196.7" width="1464" height="24.65"/>
            </clipPath>
<clipPath id="terminal-938747382-line-9">
    <rect x="0" y="221.1" width="1464" height="24.65"/>
            </clipPath>
<clipPath id="terminal-938747382-line-10">
    <rect x="0" y="245.5" width="1464" height="24.65"/>
            </clipPath>
<clipPath id="terminal-938747382-line-11">
    <rect x="0" y="269.9" width="1464" height="24.65"/>
            </clipPath>
<clipPath id="terminal-938747382-line-12">
    <rect x="0" y="294.3" width="1464" height="24.65"/>
            </clipPath>
<clipPath id="terminal-938747382-line-13">
    <rect x="0" y="318.7" width="1464" height="24.65"/>
            </clipPath>
<clipPath id="terminal-938747382-line-14">
    <rect x="0" y="343.1" width="1464" height="24.65"/>
            </clipPath>
<clipPath id="terminal-938747382-line-15">
    <rect x="0" y="367.5" width="1464" height="24.65"/>
            </clipPath>
<clipPath id="terminal-938747382-line-16">
    <rect x="0" y="391.9" width="1464" height="24.65"/>
            </clipPath>
<clipPath id="terminal-938747382-line-17">
    <rect x="0" y="416.3" width="1464" height="24.65"/>
            </clipPath>
<clipPath id="terminal-938747382-line-18">
    <rect x="0" y="440.7" width="1464" height="24.65"/>
            </clipPath>
<clipPath id="terminal-938747382-line-19">
    <rect x="0" y="465.1" width="1464" height="24.65"/>
            </clipPath>
<clipPath id="terminal-938747382-line-20">
    <rect x="0" y="489.5" width="1464" height="24.65"/>
            </clipPath>
<clipPath id="terminal-938747382-line-21">
    <rect x="0" y="513.9" width="1464" height="24.65"/>
            </clipPath>
<clipPath id="terminal-938747382-line-22">
    <rect x="0" y="538.3" width="1464" height="24.65"/>
            </clipPath>
<clipPath id="terminal-938747382-line-23">
    <rect x="0" y="562.7" width="1464" height="24.65"/>
            </clipPath>
<clipPath id="terminal-938747382-line-24">
    <rect x="0" y="587.1" width="1464" height="24.65"/>
            </clipPath>
<clipPath id="terminal-938747382-line-25">
    <rect x="0" y="611.5" width="1464" height="24.65"/>
            </clipPath>
<clipPath id="terminal-938747382-line-26">
    <rect x="0" y="635.9" width="1464" height="24.65"/>
            </clipPath>
<clipPath id="terminal-938747382-line-27">
    <rect x="0" y="660.3" width="1464" height="24.65"/>
            </clipPath>
<clipPath id="terminal-938747382-line-28">
    <rect x="0" y="684.7" width="1464" height="24.65"/>
            </clipPath>
<clipPath id="terminal-938747382-line-29">
    <rect x="0" y="709.1" width="1464" height="24.65"/>
            </clipPath>
<clipPath id="terminal-938747382-line-30">
    <rect x="0" y="733.5" width="1464" height="24.65"/>
            </clipPath>
<clipPath id="terminal-938747382-line-31">
    <rect x="0" y="757.9" width="1464" height="24.65"/>
            </clipPath>
<clipPath id="terminal-938747382-line-32">
    <rect x="0" y="782.3" width="1464" height="24.65"/>
            </clipPath>
<clipPath id="terminal-938747382-line-33">
    <rect x="0" y="806.7" width="1464" height="24.65"/>
            </clipPath>
<clipPath id="terminal-938747382-line-34">
    <rect x="0" y="831.1" width="1464" height="24.65"/>
            </clipPath>
<clipPath id="terminal-938747382-line-35">
    <rect x="0" y="855.5" width="1464" height="24.65"/>
            </clipPath>
<clipPath id="terminal-938747382-line-36">
    <rect x="0" y="879.9" width="1464" height="24.65"/>
            </clipPath>
<clipPath id="terminal-938747382-line-37">
    <rect x="0" y="904.3" width="1464" height="24.65"/>
            </clipPath>
<clipPath id="terminal-938747382-line-38">
    <rect x="0" y="928.7" width="1464" height="24.65"/>
            </clipPath>
    </defs>

    <rect fill="#292929" stroke="rgba(255,255,255,0.35)" stroke-width="1" x="1" y="1" width="1480" height="1024" rx="8"/><text class="terminal-938747382-title" fill="#c5c8c6" text-anchor="middle" x="740" y="27">OmniCrawl</text>
            <g transform="translate(26,22)">
            <circle cx="0" cy="0" r="7" fill="#ff5f57"/>
            <circle cx="22" cy="0" r="7" fill="#febc2e"/>
            <circle cx="44" cy="0" r="7" fill="#28c840"/>
            </g>

    <g transform="translate(9, 41)" clip-path="url(#terminal-938747382-clip-terminal)">
    <rect fill="#ffffff" x="0" y="1.5" width="12.2" height="24.65" shape-rendering="crispEdges"/><rect fill="#ffffff" x="12.2" y="1.5" width="134.2" height="24.65" shape-rendering="crispEdges"/><rect fill="#ffffff" x="146.4" y="1.5" width="85.4" height="24.65" shape-rendering="crispEdges"/><rect fill="#ffffff" x="231.8" y="1.5" width="48.8" height="24.65" shape-rendering="crispEdges"/><rect fill="#ffffff" x="280.6" y="1.5" width="122" height="24.65" shape-rendering="crispEdges"/><rect fill="#ffffff" x="402.6" y="1.5" width="61" height="24.65" shape-rendering="crispEdges"/><rect fill="#ffffff" x="463.6" y="1.5" width="48.8" height="24.65" shape-rendering="crispEdges"/><rect fill="#ffffff" x="512.4" y="1.5" width="146.4" height="24.65" shape-rendering="crispEdges"/><rect fill="#ffffff" x="658.8" y="1.5" width="61" height="24.65" shape-rendering="crispEdges"/><rect fill="#ffffff" x="719.8" y="1.5" width="48.8" height="24.65" shape-rendering="crispEdges"/><rect fill="#ffffff" x="768.6" y="1.5" width="73.2" height="24.65" shape-rendering="crispEdges"/><rect fill="#ffffff" x="841.8" y="1.5" width="61" height="24.65" shape-rendering="crispEdges"/><rect fill="#ffffff" x="902.8" y="1.5" width="48.8" height="24.65" shape-rendering="crispEdges"/><rect fill="#ffffff" x="951.6" y="1.5" width="36.6" height="24.65" shape-rendering="crispEdges"/><rect fill="#ffffff" x="988.2" y="1.5" width="268.4" height="24.65" shape-rendering="crispEdges"/><rect fill="#ffffff" x="1256.6" y="1.5" width="73.2" height="24.65" shape-rendering="crispEdges"/><rect fill="#ffffff" x="1329.8" y="1.5" width="122" height="24.65" shape-rendering="crispEdges"/><rect fill="#ffffff" x="1451.8" y="1.5" width="12.2" height="24.65" shape-rendering="crispEdges"/><rect fill="#f4f7f9" x="0" y="25.9" width="12.2" height="24.65" shape-rendering="crispEdges"/><rect fill="#f4f7f9" x="12.2" y="25.9" width="36.6" height="24.65" shape-rendering="crispEdges"/><rect fill="#f4f7f9" x="48.8" y="25.9" width="61" height="24.65" shape-rendering="crispEdges"/><rect fill="#f4f7f9" x="109.8" y="25.9" width="73.2" height="24.65" shape-rendering="crispEdges"/><rect fill="#f4f7f9" x="183" y="25.9" width="48.8" height="24.65" shape-rendering="crispEdges"/><rect fill="#f4f7f9" x="231.8" y="25.9" width="61" height="24.65" shape-rendering="crispEdges"/><rect fill="#f4f7f9" x="292.8" y="25.9" width="48.8" height="24.65" shape-rendering="crispEdges"/><rect fill="#f4f7f9" x="341.6" y="25.9" width="73.2" height="24.65" shape-rendering="crispEdges"/><rect fill="#f4f7f9" x="414.8" y="25.9" width="134.2" height="24.65" shape-rendering="crispEdges"/><rect fill="#f4f7f9" x="549" y="25.9" width="24.4" height="24.65" shape-rendering="crispEdges"/><rect fill="#f4f7f9" x="573.4" y="25.9" width="122" height="24.65" shape-rendering="crispEdges"/><rect fill="#f4f7f9" x="695.4" y="25.9" width="48.8" height="24.65" shape-rendering="crispEdges"/><rect fill="#f4f7f9" x="744.2" y="25.9" width="707.6" height="24.65" shape-rendering="crispEdges"/><rect fill="#f4f7f9" x="1451.8" y="25.9" width="12.2" height="24.65" shape-rendering="crispEdges"/><rect fill="#f4f7f9" x="0" y="50.3" width="1464" height="24.65" shape-rendering="crispEdges"/><rect fill="#fbfcfd" x="0" y="74.7" width="1464" height="24.65" shape-rendering="crispEdges"/><rect fill="#fbfcfd" x="0" y="99.1" width="12.2" height="24.65" shape-rendering="crispEdges"/><rect fill="#f4f7f9" x="12.2" y="99.1" width="12.2" height="24.65" shape-rendering="crispEdges"/><rect fill="#f4f7f9" x="24.4" y="99.1" width="671" height="24.65" shape-rendering="crispEdges"/><rect fill="#f4f7f9" x="695.4" y="99.1" width="744.2" height="24.65" shape-rendering="crispEdges"/><rect fill="#f4f7f9" x="1439.6" y="99.1" width="12.2" height="24.65" shape-rendering="crispEdges"/><rect fill="#fbfcfd" x="1451.8" y="99.1" width="12.2" height="24.65" shape-rendering="crispEdges"/><rect fill="#fbfcfd" x="0" y="123.5" width="12.2" height="24.65" shape-rendering="crispEdges"/><rect fill="#fbfcfd" x="12.2" y="123.5" width="24.4" height="24.65" shape-rendering="crispEdges"/><rect fill="#fbfcfd" x="36.6" y="123.5" width="268.4" height="24.65" shape-rendering="crispEdges"/><rect fill="#fbfcfd" x="305" y="123.5" width="1146.8" height="24.65" shape-rendering="crispEdges"/><rect fill="#fbfcfd" x="1451.8" y="123.5" width="12.2" height="24.65" shape-rendering="crispEdges"/><rect fill="#fbfcfd" x="0" y="147.9" width="12.2" height="24.65" shape-rendering="crispEdges"/><rect fill="#fbfcfd" x="12.2" y="147.9" width="24.4" height="24.65" shape-rendering="crispEdges"/><rect fill="#fbfcfd" x="36.6" y="147.9" width="561.2" height="24.65" shape-rendering="crispEdges"/><rect fill="#fbfcfd" x="597.8" y="147.9" width="854" height="24.65" shape-rendering="crispEdges"/><rect fill="#fbfcfd" x="1451.8" y="147.9" width="12.2" height="24.65" shape-rendering="crispEdges"/><rect fill="#fbfcfd" x="0" y="172.3" width="12.2" height="24.65" shape-rendering="crispEdges"/><rect fill="#fbfcfd" x="12.2" y="172.3" width="12.2" height="24.65" shape-rendering="crispEdges"/><rect fill="#fbfcfd" x="24.4" y="172.3" width="1415.2" height="24.65" shape-rendering="crispEdges"/><rect fill="#fbfcfd" x="1439.6" y="172.3" width="12.2" height="24.65" shape-rendering="crispEdges"/><rect fill="#fbfcfd" x="1451.8" y="172.3" width="12.2" height="24.65" shape-rendering="crispEdges"/><rect fill="#fbfcfd" x="0" y="196.7" width="12.2" height="24.65" shape-rendering="crispEdges"/><rect fill="#fbfcfd" x="12.2" y="196.7" width="12.2" height="24.65" shape-rendering="crispEdges"/><rect fill="#fbfcfd" x="24.4" y="196.7" width="1415.2" height="24.65" shape-rendering="crispEdges"/><rect fill="#fbfcfd" x="1439.6" y="196.7" width="12.2" height="24.65" shape-rendering="crispEdges"/><rect fill="#fbfcfd" x="1451.8" y="196.7" width="12.2" height="24.65" shape-rendering="crispEdges"/><rect fill="#fbfcfd" x="0" y="221.1" width="12.2" height="24.65" shape-rendering="crispEdges"/><rect fill="#fbfcfd" x="12.2" y="221.1" width="12.2" height="24.65" shape-rendering="crispEdges"/><rect fill="#fbfcfd" x="24.4" y="221.1" width="36.6" height="24.65" shape-rendering="crispEdges"/><rect fill="#fbfcfd" x="61" y="221.1" width="1378.6" height="24.65" shape-rendering="crispEdges"/><rect fill="#fbfcfd" x="1439.6" y="221.1" width="12.2" height="24.65" shape-rendering="crispEdges"/><rect fill="#fbfcfd" x="1451.8" y="221.1" width="12.2" height="24.65" shape-rendering="crispEdges"/><rect fill="#fbfcfd" x="0" y="245.5" width="12.2" height="24.65" shape-rendering="crispEdges"/><rect fill="#fbfcfd" x="12.2" y="245.5" width="12.2" height="24.65" shape-rendering="crispEdges"/><rect fill="#fbfcfd" x="24.4" y="245.5" width="36.6" height="24.65" shape-rendering="crispEdges"/><rect fill="#fbfcfd" x="61" y="245.5" width="1378.6" height="24.65" shape-rendering="crispEdges"/><rect fill="#fbfcfd" x="1439.6" y="245.5" width="12.2" height="24.65" shape-rendering="crispEdges"/><rect fill="#fbfcfd" x="1451.8" y="245.5" width="12.2" height="24.65" shape-rendering="crispEdges"/><rect fill="#fbfcfd" x="0" y="269.9" width="12.2" height="24.65" shape-rendering="crispEdges"/><rect fill="#fbfcfd" x="12.2" y="269.9" width="12.2" height="24.65" shape-rendering="crispEdges"/><rect fill="#fbfcfd" x="24.4" y="269.9" width="36.6" height="24.65" shape-rendering="crispEdges"/><rect fill="#fbfcfd" x="61" y="269.9" width="1378.6" height="24.65" shape-rendering="crispEdges"/><rect fill="#fbfcfd" x="1439.6" y="269.9" width="12.2" height="24.65" shape-rendering="crispEdges"/><rect fill="#fbfcfd" x="1451.8" y="269.9" width="12.2" height="24.65" shape-rendering="crispEdges"/><rect fill="#fbfcfd" x="0" y="294.3" width="12.2" height="24.65" shape-rendering="crispEdges"/><rect fill="#fbfcfd" x="12.2" y="294.3" width="1439.6" height="24.65" shape-rendering="crispEdges"/><rect fill="#fbfcfd" x="1451.8" y="294.3" width="12.2" height="24.65" shape-rendering="crispEdges"/><rect fill="#fbfcfd" x="0" y="318.7" width="12.2" height="24.65" shape-rendering="crispEdges"/><rect fill="#fbfcfd" x="12.2" y="318.7" width="1439.6" height="24.65" shape-rendering="crispEdges"/><rect fill="#fbfcfd" x="1451.8" y="318.7" width="12.2" height="24.65" shape-rendering="crispEdges"/><rect fill="#fbfcfd" x="0" y="343.1" width="12.2" height="24.65" shape-rendering="crispEdges"/><rect fill="#fbfcfd" x="12.2" y="343.1" width="1439.6" height="24.65" shape-rendering="crispEdges"/><rect fill="#fbfcfd" x="1451.8" y="343.1" width="12.2" height="24.65" shape-rendering="crispEdges"/><rect fill="#fbfcfd" x="0" y="367.5" width="12.2" height="24.65" shape-rendering="crispEdges"/><rect fill="#fbfcfd" x="12.2" y="367.5" width="1439.6" height="24.65" shape-rendering="crispEdges"/><rect fill="#fbfcfd" x="1451.8" y="367.5" width="12.2" height="24.65" shape-rendering="crispEdges"/><rect fill="#fbfcfd" x="0" y="391.9" width="12.2" height="24.65" shape-rendering="crispEdges"/><rect fill="#fbfcfd" x="12.2" y="391.9" width="1439.6" height="24.65" shape-rendering="crispEdges"/><rect fill="#fbfcfd" x="1451.8" y="391.9" width="12.2" height="24.65" shape-rendering="crispEdges"/><rect fill="#fbfcfd" x="0" y="416.3" width="12.2" height="24.65" shape-rendering="crispEdges"/><rect fill="#fbfcfd" x="12.2" y="416.3" width="1439.6" height="24.65" shape-rendering="crispEdges"/><rect fill="#fbfcfd" x="1451.8" y="416.3" width="12.2" height="24.65" shape-rendering="crispEdges"/><rect fill="#fbfcfd" x="0" y="440.7" width="12.2" height="24.65" shape-rendering="crispEdges"/><rect fill="#fbfcfd" x="12.2" y="440.7" width="1439.6" height="24.65" shape-rendering="crispEdges"/><rect fill="#fbfcfd" x="1451.8" y="440.7" width="12.2" height="24.65" shape-rendering="crispEdges"/><rect fill="#fbfcfd" x="0" y="465.1" width="12.2" height="24.65" shape-rendering="crispEdges"/><rect fill="#fbfcfd" x="12.2" y="465.1" width="1439.6" height="24.65" shape-rendering="crispEdges"/><rect fill="#fbfcfd" x="1451.8" y="465.1" width="12.2" height="24.65" shape-rendering="crispEdges"/><rect fill="#fbfcfd" x="0" y="489.5" width="12.2" height="24.65" shape-rendering="crispEdges"/><rect fill="#fbfcfd" x="12.2" y="489.5" width="1439.6" height="24.65" shape-rendering="crispEdges"/><rect fill="#fbfcfd" x="1451.8" y="489.5" width="12.2" height="24.65" shape-rendering="crispEdges"/><rect fill="#fbfcfd" x="0" y="513.9" width="12.2" height="24.65" shape-rendering="crispEdges"/><rect fill="#fbfcfd" x="12.2" y="513.9" width="1439.6" height="24.65" shape-rendering="crispEdges"/><rect fill="#fbfcfd" x="1451.8" y="513.9" width="12.2" height="24.65" shape-rendering="crispEdges"/><rect fill="#fbfcfd" x="0" y="538.3" width="12.2" height="24.65" shape-rendering="crispEdges"/><rect fill="#fbfcfd" x="12.2" y="538.3" width="1439.6" height="24.65" shape-rendering="crispEdges"/><rect fill="#fbfcfd" x="1451.8" y="538.3" width="12.2" height="24.65" shape-rendering="crispEdges"/><rect fill="#fbfcfd" x="0" y="562.7" width="12.2" height="24.65" shape-rendering="crispEdges"/><rect fill="#fbfcfd" x="12.2" y="562.7" width="1439.6" height="24.65" shape-rendering="crispEdges"/><rect fill="#fbfcfd" x="1451.8" y="562.7" width="12.2" height="24.65" shape-rendering="crispEdges"/><rect fill="#fbfcfd" x="0" y="587.1" width="12.2" height="24.65" shape-rendering="crispEdges"/><rect fill="#fbfcfd" x="12.2" y="587.1" width="1439.6" height="24.65" shape-rendering="crispEdges"/><rect fill="#fbfcfd" x="1451.8" y="587.1" width="12.2" height="24.65" shape-rendering="crispEdges"/><rect fill="#fbfcfd" x="0" y="611.5" width="12.2" height="24.65" shape-rendering="crispEdges"/><rect fill="#fbfcfd" x="12.2" y="611.5" width="1439.6" height="24.65" shape-rendering="crispEdges"/><rect fill="#fbfcfd" x="1451.8" y="611.5" width="12.2" height="24.65" shape-rendering="crispEdges"/><rect fill="#fbfcfd" x="0" y="635.9" width="12.2" height="24.65" shape-rendering="crispEdges"/><rect fill="#fbfcfd" x="12.2" y="635.9" width="1439.6" height="24.65" shape-rendering="crispEdges"/><rect fill="#fbfcfd" x="1451.8" y="635.9" width="12.2" height="24.65" shape-rendering="crispEdges"/><rect fill="#fbfcfd" x="0" y="660.3" width="12.2" height="24.65" shape-rendering="crispEdges"/><rect fill="#fbfcfd" x="12.2" y="660.3" width="1439.6" height="24.65" shape-rendering="crispEdges"/><rect fill="#fbfcfd" x="1451.8" y="660.3" width="12.2" height="24.65" shape-rendering="crispEdges"/><rect fill="#fbfcfd" x="0" y="684.7" width="1464" height="24.65" shape-rendering="crispEdges"/><rect fill="#ffffff" x="0" y="709.1" width="1464" height="24.65" shape-rendering="crispEdges"/><rect fill="#ffffff" x="0" y="733.5" width="12.2" height="24.65" shape-rendering="crispEdges"/><rect fill="#ffffff" x="12.2" y="733.5" width="12.2" height="24.65" shape-rendering="crispEdges"/><rect fill="#ffffff" x="24.4" y="733.5" width="12.2" height="24.65" shape-rendering="crispEdges"/><rect fill="#ffffff" x="36.6" y="733.5" width="73.2" height="24.65" shape-rendering="crispEdges"/><rect fill="#ffffff" x="109.8" y="733.5" width="268.4" height="24.65" shape-rendering="crispEdges"/><rect fill="#ffffff" x="378.2" y="733.5" width="1061.4" height="24.65" shape-rendering="crispEdges"/><rect fill="#ffffff" x="1439.6" y="733.5" width="12.2" height="24.65" shape-rendering="crispEdges"/><rect fill="#ffffff" x="1451.8" y="733.5" width="12.2" height="24.65" shape-rendering="crispEdges"/><rect fill="#ffffff" x="0" y="757.9" width="12.2" height="24.65" shape-rendering="crispEdges"/><rect fill="#ffffff" x="12.2" y="757.9" width="12.2" height="24.65" shape-rendering="crispEdges"/><rect fill="#ffffff" x="24.4" y="757.9" width="12.2" height="24.65" shape-rendering="crispEdges"/><rect fill="#ffffff" x="36.6" y="757.9" width="146.4" height="24.65" shape-rendering="crispEdges"/><rect fill="#ffffff" x="183" y="757.9" width="402.6" height="24.65" shape-rendering="crispEdges"/><rect fill="#ffffff" x="585.6" y="757.9" width="854" height="24.65" shape-rendering="crispEdges"/><rect fill="#ffffff" x="1439.6" y="757.9" width="12.2" height="24.65" shape-rendering="crispEdges"/><rect fill="#ffffff" x="1451.8" y="757.9" width="12.2" height="24.65" shape-rendering="crispEdges"/><rect fill="#ffffff" x="0" y="782.3" width="12.2" height="24.65" shape-rendering="crispEdges"/><rect fill="#ffffff" x="12.2" y="782.3" width="12.2" height="24.65" shape-rendering="crispEdges"/><rect fill="#ffffff" x="24.4" y="782.3" width="12.2" height="24.65" shape-rendering="crispEdges"/><rect fill="#ffffff" x="36.6" y="782.3" width="97.6" height="24.65" shape-rendering="crispEdges"/><rect fill="#ffffff" x="134.2" y="782.3" width="793" height="24.65" shape-rendering="crispEdges"/><rect fill="#ffffff" x="927.2" y="782.3" width="512.4" height="24.65" shape-rendering="crispEdges"/><rect fill="#ffffff" x="1439.6" y="782.3" width="12.2" height="24.65" shape-rendering="crispEdges"/><rect fill="#ffffff" x="1451.8" y="782.3" width="12.2" height="24.65" shape-rendering="crispEdges"/><rect fill="#ffffff" x="0" y="806.7" width="12.2" height="24.65" shape-rendering="crispEdges"/><rect fill="#ffffff" x="12.2" y="806.7" width="12.2" height="24.65" shape-rendering="crispEdges"/><rect fill="#ffffff" x="24.4" y="806.7" width="12.2" height="24.65" shape-rendering="crispEdges"/><rect fill="#ffffff" x="36.6" y="806.7" width="109.8" height="24.65" shape-rendering="crispEdges"/><rect fill="#ffffff" x="146.4" y="806.7" width="280.6" height="24.65" shape-rendering="crispEdges"/><rect fill="#ffffff" x="427" y="806.7" width="1012.6" height="24.65" shape-rendering="crispEdges"/><rect fill="#ffffff" x="1439.6" y="806.7" width="12.2" height="24.65" shape-rendering="crispEdges"/><rect fill="#ffffff" x="1451.8" y="806.7" width="12.2" height="24.65" shape-rendering="crispEdges"/><rect fill="#ffffff" x="0" y="831.1" width="12.2" height="24.65" shape-rendering="crispEdges"/><rect fill="#ffffff" x="12.2" y="831.1" width="12.2" height="24.65" shape-rendering="crispEdges"/><rect fill="#ffffff" x="24.4" y="831.1" width="12.2" height="24.65" shape-rendering="crispEdges"/><rect fill="#ffffff" x="36.6" y="831.1" width="134.2" height="24.65" shape-rendering="crispEdges"/><rect fill="#ffffff" x="170.8" y="831.1" width="585.6" height="24.65" shape-rendering="crispEdges"/><rect fill="#ffffff" x="756.4" y="831.1" width="683.2" height="24.65" shape-rendering="crispEdges"/><rect fill="#ffffff" x="1439.6" y="831.1" width="12.2" height="24.65" shape-rendering="crispEdges"/><rect fill="#ffffff" x="1451.8" y="831.1" width="12.2" height="24.65" shape-rendering="crispEdges"/><rect fill="#ffffff" x="0" y="855.5" width="12.2" height="24.65" shape-rendering="crispEdges"/><rect fill="#ffffff" x="12.2" y="855.5" width="12.2" height="24.65" shape-rendering="crispEdges"/><rect fill="#ffffff" x="24.4" y="855.5" width="12.2" height="24.65" shape-rendering="crispEdges"/><rect fill="#ffffff" x="36.6" y="855.5" width="146.4" height="24.65" shape-rendering="crispEdges"/><rect fill="#ffffff" x="183" y="855.5" width="292.8" height="24.65" shape-rendering="crispEdges"/><rect fill="#ffffff" x="475.8" y="855.5" width="963.8" height="24.65" shape-rendering="crispEdges"/><rect fill="#ffffff" x="1439.6" y="855.5" width="12.2" height="24.65" shape-rendering="crispEdges"/><rect fill="#ffffff" x="1451.8" y="855.5" width="12.2" height="24.65" shape-rendering="crispEdges"/><rect fill="#ffffff" x="0" y="879.9" width="12.2" height="24.65" shape-rendering="crispEdges"/><rect fill="#ffffff" x="12.2" y="879.9" width="12.2" height="24.65" shape-rendering="crispEdges"/><rect fill="#ffffff" x="24.4" y="879.9" width="12.2" height="24.65" shape-rendering="crispEdges"/><rect fill="#ffffff" x="36.6" y="879.9" width="109.8" height="24.65" shape-rendering="crispEdges"/><rect fill="#ffffff" x="146.4" y="879.9" width="341.6" height="24.65" shape-rendering="crispEdges"/><rect fill="#ffffff" x="488" y="879.9" width="951.6" height="24.65" shape-rendering="crispEdges"/><rect fill="#ffffff" x="1439.6" y="879.9" width="12.2" height="24.65" shape-rendering="crispEdges"/><rect fill="#ffffff" x="1451.8" y="879.9" width="12.2" height="24.65" shape-rendering="crispEdges"/><rect fill="#ffffff" x="0" y="904.3" width="12.2" height="24.65" shape-rendering="crispEdges"/><rect fill="#ffffff" x="12.2" y="904.3" width="12.2" height="24.65" shape-rendering="crispEdges"/><rect fill="#ffffff" x="24.4" y="904.3" width="12.2" height="24.65" shape-rendering="crispEdges"/><rect fill="#ffffff" x="36.6" y="904.3" width="183" height="24.65" shape-rendering="crispEdges"/><rect fill="#ffffff" x="219.6" y="904.3" width="268.4" height="24.65" shape-rendering="crispEdges"/><rect fill="#ffffff" x="488" y="904.3" width="951.6" height="24.65" shape-rendering="crispEdges"/><rect fill="#ffffff" x="1439.6" y="904.3" width="12.2" height="24.65" shape-rendering="crispEdges"/><rect fill="#ffffff" x="1451.8" y="904.3" width="12.2" height="24.65" shape-rendering="crispEdges"/><rect fill="#ffffff" x="0" y="928.7" width="12.2" height="24.65" shape-rendering="crispEdges"/><rect fill="#e9ecee" x="12.2" y="928.7" width="12.2" height="24.65" shape-rendering="crispEdges"/><rect fill="#e9ecee" x="24.4" y="928.7" width="12.2" height="24.65" shape-rendering="crispEdges"/><rect fill="#e9ecee" x="36.6" y="928.7" width="12.2" height="24.65" shape-rendering="crispEdges"/><rect fill="#202830" x="48.8" y="928.7" width="12.2" height="24.65" shape-rendering="crispEdges"/><rect fill="#e9ecee" x="61" y="928.7" width="1378.6" height="24.65" shape-rendering="crispEdges"/><rect fill="#e9ecee" x="1439.6" y="928.7" width="12.2" height="24.65" shape-rendering="crispEdges"/><rect fill="#ffffff" x="1451.8" y="928.7" width="12.2" height="24.65" shape-rendering="crispEdges"/><rect fill="#ffffff" x="0" y="953.1" width="12.2" height="24.65" shape-rendering="crispEdges"/><rect fill="#e9ecee" x="12.2" y="953.1" width="12.2" height="24.65" shape-rendering="crispEdges"/><rect fill="#e9ecee" x="24.4" y="953.1" width="12.2" height="24.65" shape-rendering="crispEdges"/><rect fill="#e9ecee" x="36.6" y="953.1" width="1403" height="24.65" shape-rendering="crispEdges"/><rect fill="#e9ecee" x="1439.6" y="953.1" width="12.2" height="24.65" shape-rendering="crispEdges"/><rect fill="#ffffff" x="1451.8" y="953.1" width="12.2" height="24.65" shape-rendering="crispEdges"/>
    <g class="terminal-938747382-matrix">
    <text class="terminal-938747382-r2" x="12.2" y="20" textLength="134.2" clip-path="url(#terminal-938747382-line-0)">◆&#160;OMNICRAWL</text><text class="terminal-938747382-r3" x="231.8" y="20" textLength="48.8" clip-path="url(#terminal-938747382-line-0)">PRJ&#160;</text><text class="terminal-938747382-r2" x="280.6" y="20" textLength="73.2" clip-path="url(#terminal-938747382-line-0)">AI课堂任务</text><text class="terminal-938747382-r4" x="402.6" y="20" textLength="61" clip-path="url(#terminal-938747382-line-0)">&#160;&#160;·&#160;&#160;</text><text class="terminal-938747382-r3" x="463.6" y="20" textLength="48.8" clip-path="url(#terminal-938747382-line-0)">MDL&#160;</text><text class="terminal-938747382-r5" x="512.4" y="20" textLength="146.4" clip-path="url(#terminal-938747382-line-0)">openai/gpt-5</text><text class="terminal-938747382-r4" x="658.8" y="20" textLength="61" clip-path="url(#terminal-938747382-line-0)">&#160;&#160;·&#160;&#160;</text><text class="terminal-938747382-r3" x="719.8" y="20" textLength="48.8" clip-path="url(#terminal-938747382-line-0)">THK&#160;</text><text class="terminal-938747382-r6" x="768.6" y="20" textLength="73.2" clip-path="url(#terminal-938747382-line-0)">MEDIUM</text><text class="terminal-938747382-r4" x="841.8" y="20" textLength="61" clip-path="url(#terminal-938747382-line-0)">&#160;&#160;·&#160;&#160;</text><text class="terminal-938747382-r3" x="902.8" y="20" textLength="48.8" clip-path="url(#terminal-938747382-line-0)">APR&#160;</text><text class="terminal-938747382-r7" x="951.6" y="20" textLength="36.6" clip-path="url(#terminal-938747382-line-0)">MAN</text><text class="terminal-938747382-r5" x="1329.8" y="20" textLength="73.2" clip-path="url(#terminal-938747382-line-0)">●&#160;正在思考</text><text class="terminal-938747382-r1" x="1464" y="20" textLength="12.2" clip-path="url(#terminal-938747382-line-0)">
</text><text class="terminal-938747382-r3" x="12.2" y="44.4" textLength="36.6" clip-path="url(#terminal-938747382-line-1)">IN&#160;</text><text class="terminal-938747382-r5" x="48.8" y="44.4" textLength="61" clip-path="url(#terminal-938747382-line-1)">18.6K</text><text class="terminal-938747382-r3" x="109.8" y="44.4" textLength="73.2" clip-path="url(#terminal-938747382-line-1)">&#160;&#160;OUT&#160;</text><text class="terminal-938747382-r6" x="183" y="44.4" textLength="48.8" clip-path="url(#terminal-938747382-line-1)">2.4K</text><text class="terminal-938747382-r3" x="231.8" y="44.4" textLength="61" clip-path="url(#terminal-938747382-line-1)">&#160;&#160;CA&#160;</text><text class="terminal-938747382-r2" x="292.8" y="44.4" textLength="48.8" clip-path="url(#terminal-938747382-line-1)">7.1K</text><text class="terminal-938747382-r3" x="341.6" y="44.4" textLength="73.2" clip-path="url(#terminal-938747382-line-1)">&#160;&#160;CTX&#160;</text><text class="terminal-938747382-r8" x="414.8" y="44.4" textLength="134.2" clip-path="url(#terminal-938747382-line-1)">18.6K/128K&#160;</text><text class="terminal-938747382-r9" x="549" y="44.4" textLength="24.4" clip-path="url(#terminal-938747382-line-1)">██</text><text class="terminal-938747382-r4" x="573.4" y="44.4" textLength="122" clip-path="url(#terminal-938747382-line-1)">░░░░░░░░░░</text><text class="terminal-938747382-r2" x="695.4" y="44.4" textLength="48.8" clip-path="url(#terminal-938747382-line-1)">&#160;15%</text><text class="terminal-938747382-r1" x="1464" y="44.4" textLength="12.2" clip-path="url(#terminal-938747382-line-1)">
</text><text class="terminal-938747382-r4" x="0" y="68.8" textLength="1464" clip-path="url(#terminal-938747382-line-2)">────────────────────────────────────────────────────────────────────────────────────────────────────────────────────────</text><text class="terminal-938747382-r1" x="1464" y="68.8" textLength="12.2" clip-path="url(#terminal-938747382-line-2)">
</text><text class="terminal-938747382-r1" x="1464" y="93.2" textLength="12.2" clip-path="url(#terminal-938747382-line-3)">
</text><text class="terminal-938747382-r8" x="24.4" y="117.6" textLength="378.2" clip-path="url(#terminal-938747382-line-4)">▸&#160;将&#160;TUI&#160;样式修改为明亮纸面模式，并保留现有布局与交互。</text><text class="terminal-938747382-r1" x="1464" y="117.6" textLength="12.2" clip-path="url(#terminal-938747382-line-4)">
</text><text class="terminal-938747382-r3" x="36.6" y="142" textLength="146.4" clip-path="url(#terminal-938747382-line-5)">▸&#160;思考过程（点击展开）</text><text class="terminal-938747382-r1" x="1464" y="142" textLength="12.2" clip-path="url(#terminal-938747382-line-5)">
</text><text class="terminal-938747382-r10" x="36.6" y="166.4" textLength="427" clip-path="url(#terminal-938747382-line-6)">⌁&#160;theme.py&#160;·&#160;已建立统一纸面色板&#160;·&#160;成功&#160;·&#160;0.13s</text><text class="terminal-938747382-r1" x="1464" y="166.4" textLength="12.2" clip-path="url(#terminal-938747382-line-6)">
</text><text class="terminal-938747382-r8" x="24.4" y="190.8" textLength="1293.2" clip-path="url(#terminal-938747382-line-7)">◇&#160;明亮纸面主题已应用。&#160;&#160;&#160;&#160;&#160;&#160;&#160;&#160;&#160;&#160;&#160;&#160;&#160;&#160;&#160;&#160;&#160;&#160;&#160;&#160;&#160;&#160;&#160;&#160;&#160;&#160;&#160;&#160;&#160;&#160;&#160;&#160;&#160;&#160;&#160;&#160;&#160;&#160;&#160;&#160;&#160;&#160;&#160;&#160;&#160;&#160;&#160;&#160;&#160;&#160;&#160;&#160;&#160;&#160;&#160;&#160;&#160;&#160;&#160;&#160;&#160;&#160;&#160;&#160;&#160;&#160;&#160;&#160;&#160;&#160;&#160;&#160;&#160;&#160;&#160;&#160;&#160;&#160;&#160;&#160;&#160;&#160;&#160;&#160;&#160;&#160;&#160;&#160;&#160;&#160;&#160;&#160;&#160;&#160;</text><text class="terminal-938747382-r1" x="1464" y="190.8" textLength="12.2" clip-path="url(#terminal-938747382-line-7)">
</text><text class="terminal-938747382-r1" x="1464" y="215.2" textLength="12.2" clip-path="url(#terminal-938747382-line-8)">
</text><text class="terminal-938747382-r11" x="24.4" y="239.6" textLength="36.6" clip-path="url(#terminal-938747382-line-9)">&#160;•&#160;</text><text class="terminal-938747382-r8" x="61" y="239.6" textLength="1244.4" clip-path="url(#terminal-938747382-line-9)">冷白纸面与中性灰结构线&#160;&#160;&#160;&#160;&#160;&#160;&#160;&#160;&#160;&#160;&#160;&#160;&#160;&#160;&#160;&#160;&#160;&#160;&#160;&#160;&#160;&#160;&#160;&#160;&#160;&#160;&#160;&#160;&#160;&#160;&#160;&#160;&#160;&#160;&#160;&#160;&#160;&#160;&#160;&#160;&#160;&#160;&#160;&#160;&#160;&#160;&#160;&#160;&#160;&#160;&#160;&#160;&#160;&#160;&#160;&#160;&#160;&#160;&#160;&#160;&#160;&#160;&#160;&#160;&#160;&#160;&#160;&#160;&#160;&#160;&#160;&#160;&#160;&#160;&#160;&#160;&#160;&#160;&#160;&#160;&#160;&#160;&#160;&#160;&#160;&#160;&#160;&#160;&#160;&#160;&#160;</text><text class="terminal-938747382-r1" x="1464" y="239.6" textLength="12.2" clip-path="url(#terminal-938747382-line-9)">
</text><text class="terminal-938747382-r11" x="24.4" y="264" textLength="36.6" clip-path="url(#terminal-938747382-line-10)">&#160;•&#160;</text><text class="terminal-938747382-r8" x="61" y="264" textLength="1195.6" clip-path="url(#terminal-938747382-line-10)">翠绿、蓝色、琥珀和红色语义状态&#160;&#160;&#160;&#160;&#160;&#160;&#160;&#160;&#160;&#160;&#160;&#160;&#160;&#160;&#160;&#160;&#160;&#160;&#160;&#160;&#160;&#160;&#160;&#160;&#160;&#160;&#160;&#160;&#160;&#160;&#160;&#160;&#160;&#160;&#160;&#160;&#160;&#160;&#160;&#160;&#160;&#160;&#160;&#160;&#160;&#160;&#160;&#160;&#160;&#160;&#160;&#160;&#160;&#160;&#160;&#160;&#160;&#160;&#160;&#160;&#160;&#160;&#160;&#160;&#160;&#160;&#160;&#160;&#160;&#160;&#160;&#160;&#160;&#160;&#160;&#160;&#160;&#160;&#160;&#160;&#160;&#160;&#160;</text><text class="terminal-938747382-r1" x="1464" y="264" textLength="12.2" clip-path="url(#terminal-938747382-line-10)">
</text><text class="terminal-938747382-r11" x="24.4" y="288.4" textLength="36.6" clip-path="url(#terminal-938747382-line-11)">&#160;•&#160;</text><text class="terminal-938747382-r8" x="61" y="288.4" textLength="1134.6" clip-path="url(#terminal-938747382-line-11)">主界面与模型、设置、确认弹窗使用同一主题&#160;&#160;&#160;&#160;&#160;&#160;&#160;&#160;&#160;&#160;&#160;&#160;&#160;&#160;&#160;&#160;&#160;&#160;&#160;&#160;&#160;&#160;&#160;&#160;&#160;&#160;&#160;&#160;&#160;&#160;&#160;&#160;&#160;&#160;&#160;&#160;&#160;&#160;&#160;&#160;&#160;&#160;&#160;&#160;&#160;&#160;&#160;&#160;&#160;&#160;&#160;&#160;&#160;&#160;&#160;&#160;&#160;&#160;&#160;&#160;&#160;&#160;&#160;&#160;&#160;&#160;&#160;&#160;&#160;&#160;&#160;&#160;&#160;</text><text class="terminal-938747382-r1" x="1464" y="288.4" textLength="12.2" clip-path="url(#terminal-938747382-line-11)">
</text><text class="terminal-938747382-r1" x="1464" y="312.8" textLength="12.2" clip-path="url(#terminal-938747382-line-12)">
</text><text class="terminal-938747382-r1" x="1464" y="337.2" textLength="12.2" clip-path="url(#terminal-938747382-line-13)">
</text><text class="terminal-938747382-r1" x="1464" y="361.6" textLength="12.2" clip-path="url(#terminal-938747382-line-14)">
</text><text class="terminal-938747382-r1" x="1464" y="386" textLength="12.2" clip-path="url(#terminal-938747382-line-15)">
</text><text class="terminal-938747382-r1" x="1464" y="410.4" textLength="12.2" clip-path="url(#terminal-938747382-line-16)">
</text><text class="terminal-938747382-r1" x="1464" y="434.8" textLength="12.2" clip-path="url(#terminal-938747382-line-17)">
</text><text class="terminal-938747382-r1" x="1464" y="459.2" textLength="12.2" clip-path="url(#terminal-938747382-line-18)">
</text><text class="terminal-938747382-r1" x="1464" y="483.6" textLength="12.2" clip-path="url(#terminal-938747382-line-19)">
</text><text class="terminal-938747382-r1" x="1464" y="508" textLength="12.2" clip-path="url(#terminal-938747382-line-20)">
</text><text class="terminal-938747382-r1" x="1464" y="532.4" textLength="12.2" clip-path="url(#terminal-938747382-line-21)">
</text><text class="terminal-938747382-r1" x="1464" y="556.8" textLength="12.2" clip-path="url(#terminal-938747382-line-22)">
</text><text class="terminal-938747382-r1" x="1464" y="581.2" textLength="12.2" clip-path="url(#terminal-938747382-line-23)">
</text><text class="terminal-938747382-r1" x="1464" y="605.6" textLength="12.2" clip-path="url(#terminal-938747382-line-24)">
</text><text class="terminal-938747382-r1" x="1464" y="630" textLength="12.2" clip-path="url(#terminal-938747382-line-25)">
</text><text class="terminal-938747382-r1" x="1464" y="654.4" textLength="12.2" clip-path="url(#terminal-938747382-line-26)">
</text><text class="terminal-938747382-r1" x="1464" y="678.8" textLength="12.2" clip-path="url(#terminal-938747382-line-27)">
</text><text class="terminal-938747382-r1" x="1464" y="703.2" textLength="12.2" clip-path="url(#terminal-938747382-line-28)">
</text><text class="terminal-938747382-r12" x="0" y="727.6" textLength="1464" clip-path="url(#terminal-938747382-line-29)">────────────────────────────────────────────────────────────────────────────────────────────────────────────────────────</text><text class="terminal-938747382-r1" x="1464" y="727.6" textLength="12.2" clip-path="url(#terminal-938747382-line-29)">
</text><text class="terminal-938747382-r13" x="12.2" y="752" textLength="12.2" clip-path="url(#terminal-938747382-line-30)">█</text><text class="terminal-938747382-r5" x="36.6" y="752" textLength="73.2" clip-path="url(#terminal-938747382-line-30)">›&#160;/new</text><text class="terminal-938747382-r3" x="109.8" y="752" textLength="158.6" clip-path="url(#terminal-938747382-line-30)">&#160;&#160;·&#160;开启一个空白会话。</text><text class="terminal-938747382-r1" x="1464" y="752" textLength="12.2" clip-path="url(#terminal-938747382-line-30)">
</text><text class="terminal-938747382-r13" x="12.2" y="776.4" textLength="12.2" clip-path="url(#terminal-938747382-line-31)">█</text><text class="terminal-938747382-r14" x="36.6" y="776.4" textLength="146.4" clip-path="url(#terminal-938747382-line-31)">&#160;&#160;/workspace</text><text class="terminal-938747382-r3" x="183" y="776.4" textLength="268.4" clip-path="url(#terminal-938747382-line-31)">&#160;&#160;·&#160;切换当前&#160;Agent&#160;的工作区目录。</text><text class="terminal-938747382-r1" x="1464" y="776.4" textLength="12.2" clip-path="url(#terminal-938747382-line-31)">
</text><text class="terminal-938747382-r13" x="12.2" y="800.8" textLength="12.2" clip-path="url(#terminal-938747382-line-32)">█</text><text class="terminal-938747382-r14" x="36.6" y="800.8" textLength="97.6" clip-path="url(#terminal-938747382-line-32)">&#160;&#160;/model</text><text class="terminal-938747382-r3" x="134.2" y="800.8" textLength="585.6" clip-path="url(#terminal-938747382-line-32)">&#160;&#160;·&#160;打开/查看模型目录，或输入&#160;key、alias、profile/model_id&#160;切换。</text><text class="terminal-938747382-r1" x="1464" y="800.8" textLength="12.2" clip-path="url(#terminal-938747382-line-32)">
</text><text class="terminal-938747382-r13" x="12.2" y="825.2" textLength="12.2" clip-path="url(#terminal-938747382-line-33)">█</text><text class="terminal-938747382-r14" x="36.6" y="825.2" textLength="109.8" clip-path="url(#terminal-938747382-line-33)">&#160;&#160;/models</text><text class="terminal-938747382-r3" x="146.4" y="825.2" textLength="207.4" clip-path="url(#terminal-938747382-line-33)">&#160;&#160;·&#160;/model&#160;的兼容别名。</text><text class="terminal-938747382-r1" x="1464" y="825.2" textLength="12.2" clip-path="url(#terminal-938747382-line-33)">
</text><text class="terminal-938747382-r13" x="12.2" y="849.6" textLength="12.2" clip-path="url(#terminal-938747382-line-34)">█</text><text class="terminal-938747382-r14" x="36.6" y="849.6" textLength="134.2" clip-path="url(#terminal-938747382-line-34)">&#160;&#160;/settings</text><text class="terminal-938747382-r3" x="170.8" y="849.6" textLength="317.2" clip-path="url(#terminal-938747382-line-34)">&#160;&#160;·&#160;打开中文设置面板，修改运行时开关并立即保存。</text><text class="terminal-938747382-r1" x="1464" y="849.6" textLength="12.2" clip-path="url(#terminal-938747382-line-34)">
</text><text class="terminal-938747382-r13" x="12.2" y="874" textLength="12.2" clip-path="url(#terminal-938747382-line-35)">█</text><text class="terminal-938747382-r14" x="36.6" y="874" textLength="146.4" clip-path="url(#terminal-938747382-line-35)">&#160;&#160;/reasoning</text><text class="terminal-938747382-r3" x="183" y="874" textLength="170.8" clip-path="url(#terminal-938747382-line-35)">&#160;&#160;·&#160;查看或切换推理强度。</text><text class="terminal-938747382-r1" x="1464" y="874" textLength="12.2" clip-path="url(#terminal-938747382-line-35)">
</text><text class="terminal-938747382-r13" x="12.2" y="898.4" textLength="12.2" clip-path="url(#terminal-938747382-line-36)">█</text><text class="terminal-938747382-r14" x="36.6" y="898.4" textLength="109.8" clip-path="url(#terminal-938747382-line-36)">&#160;&#160;/skills</text><text class="terminal-938747382-r3" x="146.4" y="898.4" textLength="231.8" clip-path="url(#terminal-938747382-line-36)">&#160;&#160;·&#160;查看当前已加载的&#160;Skill。</text><text class="terminal-938747382-r1" x="1464" y="898.4" textLength="12.2" clip-path="url(#terminal-938747382-line-36)">
</text><text class="terminal-938747382-r13" x="12.2" y="922.8" textLength="12.2" clip-path="url(#terminal-938747382-line-37)">█</text><text class="terminal-938747382-r14" x="36.6" y="922.8" textLength="183" clip-path="url(#terminal-938747382-line-37)">&#160;&#160;/memory:clean</text><text class="terminal-938747382-r3" x="219.6" y="922.8" textLength="158.6" clip-path="url(#terminal-938747382-line-37)">&#160;&#160;·&#160;清理过期长期记忆。</text><text class="terminal-938747382-r1" x="1464" y="922.8" textLength="12.2" clip-path="url(#terminal-938747382-line-37)">
</text><text class="terminal-938747382-r9" x="12.2" y="947.2" textLength="12.2" clip-path="url(#terminal-938747382-line-38)">█</text><text class="terminal-938747382-r8" x="36.6" y="947.2" textLength="12.2" clip-path="url(#terminal-938747382-line-38)">/</text><text class="terminal-938747382-r1" x="1464" y="947.2" textLength="12.2" clip-path="url(#terminal-938747382-line-38)">
</text><text class="terminal-938747382-r9" x="12.2" y="971.6" textLength="12.2" clip-path="url(#terminal-938747382-line-39)">█</text>
    </g>
    </g>
</svg>
